<mxfile host="65bd71144e">
    <diagram id="bUGtnIIeNgMEQNAdtqXJ" name="第 1 页">
        <mxGraphModel dx="640" dy="590" grid="1" gridSize="10" guides="1" tooltips="1" connect="1" arrows="1" fold="1" page="1" pageScale="1" pageWidth="782" pageHeight="415" math="1" shadow="0">
            <root>
                <mxCell id="0"/>
                <mxCell id="1" parent="0"/>
                <mxCell id="161" value="" style="rounded=1;whiteSpace=wrap;html=1;fontSize=15;fillColor=#DEDEDE;fontColor=#333333;strokeColor=#A3BB44;gradientColor=none;autosize=0;" parent="1" vertex="1">
                    <mxGeometry x="432" y="217" width="210" height="190" as="geometry"/>
                </mxCell>
                <mxCell id="12" value="" style="rounded=1;whiteSpace=wrap;fillColor=#DEDEDE;fontColor=#333333;strokeColor=#A3BB44;autosize=0;" parent="1" vertex="1">
                    <mxGeometry x="207" y="1" width="215" height="410" as="geometry"/>
                </mxCell>
                <mxCell id="40" value="" style="rounded=1;whiteSpace=wrap;html=1;fontSize=15;fillColor=#f5f5f5;fontColor=#333333;strokeColor=#A3BB44;gradientColor=#EDEDED;glass=0;shadow=0;autosize=0;labelBorderColor=none;" parent="1" vertex="1">
                    <mxGeometry x="9" y="26" width="403" height="228" as="geometry"/>
                </mxCell>
                <mxCell id="41" value="" style="rounded=1;whiteSpace=wrap;html=1;fontSize=15;fillColor=#f5f5f5;fontColor=#333333;strokeColor=#A3BB44;gradientColor=#EDEDED;autosize=0;glass=0;sketch=0;shadow=0;" parent="1" vertex="1">
                    <mxGeometry x="9" y="261" width="403" height="146" as="geometry"/>
                </mxCell>
                <mxCell id="38" value="Topology of Substrate Network" style="text;html=1;align=center;verticalAlign=middle;resizable=0;points=[];autosize=0;strokeColor=none;fillColor=none;fontSize=12;rounded=0;fontStyle=1" parent="1" vertex="1">
                    <mxGeometry y="206" width="220" height="20" as="geometry"/>
                </mxCell>
                <mxCell id="39" value="Topology of Virtual Network" style="text;html=1;align=center;verticalAlign=middle;resizable=0;points=[];autosize=0;strokeColor=none;fillColor=none;fontSize=12;rounded=0;fontStyle=1" parent="1" vertex="1">
                    <mxGeometry x="16" y="384" width="200" height="20" as="geometry"/>
                </mxCell>
                <mxCell id="14" value="" style="ellipse;whiteSpace=wrap;html=1;aspect=fixed;fillColor=#f8cecc;strokeColor=#b85450;autosize=0;rounded=0;" parent="1" vertex="1">
                    <mxGeometry x="151" y="153" width="40" height="40" as="geometry"/>
                </mxCell>
                <mxCell id="36" style="edgeStyle=none;html=1;exitX=1;exitY=0.5;exitDx=0;exitDy=0;entryX=0;entryY=0.5;entryDx=0;entryDy=0;endArrow=none;endFill=0;strokeColor=#A3BB44;rounded=0;" parent="1" source="21" target="14" edge="1">
                    <mxGeometry relative="1" as="geometry"/>
                </mxCell>
                <mxCell id="21" value="" style="ellipse;whiteSpace=wrap;html=1;aspect=fixed;fillColor=#f8cecc;strokeColor=#b85450;autosize=0;rounded=0;" parent="1" vertex="1">
                    <mxGeometry x="77" y="153" width="40" height="40" as="geometry"/>
                </mxCell>
                <mxCell id="34" style="edgeStyle=none;html=1;exitX=0.5;exitY=1;exitDx=0;exitDy=0;entryX=0.5;entryY=0;entryDx=0;entryDy=0;endArrow=none;endFill=0;strokeColor=#A3BB44;rounded=0;" parent="1" source="22" target="14" edge="1">
                    <mxGeometry relative="1" as="geometry"/>
                </mxCell>
                <mxCell id="22" value="" style="ellipse;whiteSpace=wrap;html=1;aspect=fixed;fillColor=#f8cecc;strokeColor=#b85450;autosize=0;rounded=0;" parent="1" vertex="1">
                    <mxGeometry x="151" y="39" width="40" height="40" as="geometry"/>
                </mxCell>
                <mxCell id="33" style="edgeStyle=none;html=1;exitX=1;exitY=0.5;exitDx=0;exitDy=0;entryX=0;entryY=0.5;entryDx=0;entryDy=0;endArrow=none;endFill=0;strokeColor=#A3BB44;rounded=0;" parent="1" source="23" target="22" edge="1">
                    <mxGeometry relative="1" as="geometry"/>
                </mxCell>
                <mxCell id="35" style="edgeStyle=none;html=1;exitX=0.5;exitY=1;exitDx=0;exitDy=0;entryX=0.5;entryY=0;entryDx=0;entryDy=0;endArrow=none;endFill=0;strokeColor=#A3BB44;rounded=0;" parent="1" source="23" target="21" edge="1">
                    <mxGeometry relative="1" as="geometry"/>
                </mxCell>
                <mxCell id="23" value="" style="ellipse;whiteSpace=wrap;html=1;aspect=fixed;fillColor=#f8cecc;strokeColor=#b85450;autosize=0;rounded=0;" parent="1" vertex="1">
                    <mxGeometry x="77" y="39" width="40" height="40" as="geometry"/>
                </mxCell>
                <mxCell id="31" style="edgeStyle=none;html=1;exitX=0.5;exitY=0;exitDx=0;exitDy=0;entryX=0;entryY=0.5;entryDx=0;entryDy=0;endArrow=none;endFill=0;strokeColor=#A3BB44;rounded=0;" parent="1" source="24" target="23" edge="1">
                    <mxGeometry relative="1" as="geometry"/>
                </mxCell>
                <mxCell id="32" style="edgeStyle=none;html=1;exitX=0.5;exitY=1;exitDx=0;exitDy=0;entryX=0;entryY=0.5;entryDx=0;entryDy=0;endArrow=none;endFill=0;strokeColor=#A3BB44;rounded=0;" parent="1" source="24" target="21" edge="1">
                    <mxGeometry relative="1" as="geometry">
                        <mxPoint x="44" y="140" as="sourcePoint"/>
                    </mxGeometry>
                </mxCell>
                <mxCell id="24" value="" style="ellipse;whiteSpace=wrap;html=1;aspect=fixed;fillColor=#f8cecc;strokeColor=#b85450;autosize=0;rounded=0;" parent="1" vertex="1">
                    <mxGeometry x="24" y="99" width="40" height="40" as="geometry"/>
                </mxCell>
                <mxCell id="25" value="" style="ellipse;whiteSpace=wrap;html=1;aspect=fixed;fillColor=#ffcc99;strokeColor=#36393d;autosize=0;rounded=0;" parent="1" vertex="1">
                    <mxGeometry x="137" y="341" width="40" height="40" as="geometry"/>
                </mxCell>
                <mxCell id="30" style="edgeStyle=none;html=1;exitX=0.5;exitY=1;exitDx=0;exitDy=0;entryX=0.5;entryY=0;entryDx=0;entryDy=0;endArrow=none;endFill=0;strokeColor=#A3BB44;dashed=1;rounded=0;" parent="1" source="26" target="25" edge="1">
                    <mxGeometry relative="1" as="geometry"/>
                </mxCell>
                <mxCell id="26" value="" style="ellipse;whiteSpace=wrap;html=1;aspect=fixed;fillColor=#ffcc99;strokeColor=#36393d;autosize=0;rounded=0;" parent="1" vertex="1">
                    <mxGeometry x="137" y="271" width="40" height="40" as="geometry"/>
                </mxCell>
                <mxCell id="28" style="edgeStyle=none;html=1;exitX=0.5;exitY=1;exitDx=0;exitDy=0;entryX=0;entryY=0.5;entryDx=0;entryDy=0;endArrow=none;endFill=0;strokeColor=#A3BB44;dashed=1;rounded=0;" parent="1" source="27" target="25" edge="1">
                    <mxGeometry relative="1" as="geometry"/>
                </mxCell>
                <mxCell id="29" style="edgeStyle=none;html=1;exitX=1;exitY=0.5;exitDx=0;exitDy=0;endArrow=none;endFill=0;strokeColor=#A3BB44;dashed=1;rounded=0;" parent="1" target="26" edge="1">
                    <mxGeometry relative="1" as="geometry">
                        <mxPoint x="63" y="291" as="sourcePoint"/>
                    </mxGeometry>
                </mxCell>
                <mxCell id="27" value="" style="ellipse;whiteSpace=wrap;html=1;aspect=fixed;fillColor=#ffcc99;strokeColor=#36393d;autosize=0;rounded=0;" parent="1" vertex="1">
                    <mxGeometry x="42" y="271" width="40" height="40" as="geometry"/>
                </mxCell>
                <mxCell id="42" value="State" style="text;align=center;verticalAlign=middle;resizable=0;points=[];autosize=0;strokeColor=none;fillColor=none;fontSize=15;fontStyle=1;rounded=0;" parent="1" vertex="1">
                    <mxGeometry x="212" y="3" width="50" height="20" as="geometry"/>
                </mxCell>
                <mxCell id="66" value="" style="rounded=1;whiteSpace=wrap;fontSize=15;fillColor=default;gradientColor=none;autosize=0;strokeColor=#A3BB44;" parent="1" vertex="1">
                    <mxGeometry x="201" y="31" width="205" height="218" as="geometry"/>
                </mxCell>
                <mxCell id="85" value="" style="rounded=1;whiteSpace=wrap;fontSize=15;fillColor=default;gradientColor=none;autosize=0;strokeColor=#A3BB44;" parent="1" vertex="1">
                    <mxGeometry x="200" y="265.5" width="202" height="137" as="geometry"/>
                </mxCell>
                <mxCell id="50" value="Virtual Network" style="text;align=center;verticalAlign=middle;resizable=0;points=[];autosize=0;strokeColor=none;fillColor=none;fontSize=15;fontStyle=1;rounded=0;" parent="1" vertex="1">
                    <mxGeometry x="210" y="272" width="130" height="20" as="geometry"/>
                </mxCell>
                <mxCell id="51" value="Node CPU request" style="text;align=center;verticalAlign=middle;resizable=0;points=[];autosize=0;strokeColor=none;fillColor=none;fontSize=15;rounded=0;" parent="1" vertex="1">
                    <mxGeometry x="209" y="292" width="140" height="20" as="geometry"/>
                </mxCell>
                <mxCell id="52" value="Link bandwidth request" style="text;align=center;verticalAlign=middle;resizable=0;points=[];autosize=0;strokeColor=none;fillColor=none;fontSize=15;rounded=0;" parent="1" vertex="1">
                    <mxGeometry x="207" y="342" width="170" height="20" as="geometry"/>
                </mxCell>
                <mxCell id="43" value="Substrate Network" style="text;align=center;verticalAlign=middle;resizable=0;points=[];autosize=0;strokeColor=none;fillColor=none;fontSize=15;fontStyle=1;rounded=0;" parent="1" vertex="1">
                    <mxGeometry x="218" y="32" width="150" height="20" as="geometry"/>
                </mxCell>
                <mxCell id="44" value="Node CPU capacity" style="text;align=center;verticalAlign=middle;resizable=0;points=[];autosize=0;strokeColor=none;fillColor=none;fontSize=15;rounded=0;" parent="1" vertex="1">
                    <mxGeometry x="209" y="51" width="150" height="20" as="geometry"/>
                </mxCell>
                <mxCell id="46" value="Node CPU remaining" style="text;align=center;verticalAlign=middle;resizable=0;points=[];autosize=0;strokeColor=none;fillColor=none;fontSize=15;rounded=0;" parent="1" vertex="1">
                    <mxGeometry x="209" y="145" width="160" height="20" as="geometry"/>
                </mxCell>
                <mxCell id="47" value="Link bandwidth remaining" style="text;align=center;verticalAlign=middle;resizable=0;points=[];autosize=0;strokeColor=none;fillColor=none;fontSize=15;rounded=0;" parent="1" vertex="1">
                    <mxGeometry x="208" y="194" width="190" height="20" as="geometry"/>
                </mxCell>
                <mxCell id="160" value="" style="rounded=1;whiteSpace=wrap;html=1;fontSize=15;fillColor=#DEDEDE;fontColor=#333333;strokeColor=#A3BB44;gradientColor=none;autosize=0;" parent="1" vertex="1">
                    <mxGeometry x="432" y="7" width="210" height="190" as="geometry"/>
                </mxCell>
                <mxCell id="162" value="Actor" style="text;html=1;align=center;verticalAlign=middle;resizable=0;points=[];autosize=0;strokeColor=none;fillColor=none;fontSize=15;fontStyle=1;rounded=0;" parent="1" vertex="1">
                    <mxGeometry x="472" y="9" width="50" height="20" as="geometry"/>
                </mxCell>
                <mxCell id="163" value="Critic" style="text;html=1;align=center;verticalAlign=middle;resizable=0;points=[];autosize=0;strokeColor=none;fillColor=none;fontSize=15;fontStyle=1;rounded=0;" parent="1" vertex="1">
                    <mxGeometry x="472" y="219.5" width="50" height="20" as="geometry"/>
                </mxCell>
                <mxCell id="205" style="edgeStyle=none;html=1;exitX=1;exitY=0.5;exitDx=0;exitDy=0;entryX=0;entryY=0.5;entryDx=0;entryDy=0;fontSize=15;endArrow=classic;endFill=1;strokeColor=#A3BB44;rounded=0;" parent="1" source="164" target="173" edge="1">
                    <mxGeometry relative="1" as="geometry"/>
                </mxCell>
                <mxCell id="207" style="edgeStyle=none;html=1;exitX=1;exitY=0.5;exitDx=0;exitDy=0;entryX=0;entryY=0.5;entryDx=0;entryDy=0;fontSize=15;endArrow=classic;endFill=1;strokeColor=#A3BB44;rounded=0;" parent="1" source="164" target="174" edge="1">
                    <mxGeometry relative="1" as="geometry"/>
                </mxCell>
                <mxCell id="233" style="edgeStyle=none;html=1;exitX=1;exitY=0.5;exitDx=0;exitDy=0;entryX=0;entryY=0.5;entryDx=0;entryDy=0;fontSize=16;endArrow=classic;endFill=1;strokeColor=#A3BB44;rounded=0;" parent="1" source="164" target="229" edge="1">
                    <mxGeometry relative="1" as="geometry"/>
                </mxCell>
                <mxCell id="332" style="edgeStyle=none;html=1;exitX=1;exitY=0.5;exitDx=0;exitDy=0;fontSize=17;endArrow=classic;endFill=1;strokeColor=#A3BB44;rounded=0;" parent="1" source="164" edge="1">
                    <mxGeometry relative="1" as="geometry">
                        <mxPoint x="542" y="57" as="targetPoint"/>
                    </mxGeometry>
                </mxCell>
                <mxCell id="164" value="" style="ellipse;whiteSpace=wrap;html=1;aspect=fixed;fontSize=15;fillColor=#dae8fc;autosize=0;strokeColor=#6c8ebf;rounded=0;" parent="1" vertex="1">
                    <mxGeometry x="471" y="101" width="32" height="32" as="geometry"/>
                </mxCell>
                <mxCell id="203" style="edgeStyle=none;html=1;exitX=1;exitY=0.5;exitDx=0;exitDy=0;entryX=0;entryY=0.5;entryDx=0;entryDy=0;fontSize=15;endArrow=classic;endFill=1;strokeColor=#A3BB44;rounded=0;" parent="1" source="165" target="173" edge="1">
                    <mxGeometry relative="1" as="geometry"/>
                </mxCell>
                <mxCell id="204" style="edgeStyle=none;html=1;exitX=1;exitY=0.5;exitDx=0;exitDy=0;entryX=0;entryY=0.5;entryDx=0;entryDy=0;fontSize=15;endArrow=classic;endFill=1;strokeColor=#A3BB44;rounded=0;" parent="1" source="165" target="174" edge="1">
                    <mxGeometry relative="1" as="geometry"/>
                </mxCell>
                <mxCell id="231" style="edgeStyle=none;html=1;exitX=1;exitY=0.5;exitDx=0;exitDy=0;entryX=0;entryY=0.5;entryDx=0;entryDy=0;fontSize=16;endArrow=classic;endFill=1;strokeColor=#A3BB44;rounded=0;" parent="1" source="165" target="229" edge="1">
                    <mxGeometry relative="1" as="geometry"/>
                </mxCell>
                <mxCell id="206" style="edgeStyle=none;html=1;exitX=1;exitY=0.5;exitDx=0;exitDy=0;entryX=0;entryY=0.5;entryDx=0;entryDy=0;fontSize=15;endArrow=classic;endFill=1;strokeColor=#A3BB44;rounded=0;" parent="1" source="166" target="172" edge="1">
                    <mxGeometry relative="1" as="geometry"/>
                </mxCell>
                <mxCell id="208" style="edgeStyle=none;html=1;exitX=1;exitY=0.5;exitDx=0;exitDy=0;entryX=0;entryY=0.5;entryDx=0;entryDy=0;fontSize=15;endArrow=classic;endFill=1;strokeColor=#A3BB44;rounded=0;" parent="1" source="166" target="173" edge="1">
                    <mxGeometry relative="1" as="geometry"/>
                </mxCell>
                <mxCell id="209" style="edgeStyle=none;html=1;exitX=1;exitY=0.5;exitDx=0;exitDy=0;entryX=0;entryY=0.5;entryDx=0;entryDy=0;fontSize=15;endArrow=classic;endFill=1;strokeColor=#A3BB44;rounded=0;" parent="1" source="166" target="174" edge="1">
                    <mxGeometry relative="1" as="geometry"/>
                </mxCell>
                <mxCell id="234" style="edgeStyle=none;html=1;exitX=1;exitY=0.5;exitDx=0;exitDy=0;fontSize=16;endArrow=classic;endFill=1;strokeColor=#A3BB44;rounded=0;" parent="1" source="166" edge="1">
                    <mxGeometry relative="1" as="geometry">
                        <mxPoint x="542" y="131" as="targetPoint"/>
                    </mxGeometry>
                </mxCell>
                <mxCell id="166" value="" style="ellipse;whiteSpace=wrap;html=1;aspect=fixed;fontSize=15;fillColor=#dae8fc;autosize=0;strokeColor=#6c8ebf;rounded=0;" parent="1" vertex="1">
                    <mxGeometry x="471" y="143" width="32" height="32" as="geometry"/>
                </mxCell>
                <mxCell id="211" style="edgeStyle=none;html=1;exitX=1;exitY=0.5;exitDx=0;exitDy=0;entryX=0;entryY=0.5;entryDx=0;entryDy=0;fontSize=15;endArrow=classic;endFill=1;strokeColor=#A3BB44;rounded=0;" parent="1" source="169" target="176" edge="1">
                    <mxGeometry relative="1" as="geometry"/>
                </mxCell>
                <mxCell id="213" style="edgeStyle=none;html=1;exitX=1;exitY=0.5;exitDx=0;exitDy=0;entryX=0;entryY=0.5;entryDx=0;entryDy=0;fontSize=15;endArrow=classic;endFill=1;strokeColor=#A3BB44;rounded=0;" parent="1" source="169" target="175" edge="1">
                    <mxGeometry relative="1" as="geometry"/>
                </mxCell>
                <mxCell id="215" style="edgeStyle=none;html=1;exitX=1;exitY=0.5;exitDx=0;exitDy=0;entryX=0;entryY=0.5;entryDx=0;entryDy=0;fontSize=15;endArrow=classic;endFill=1;strokeColor=#A3BB44;rounded=0;" parent="1" source="169" target="177" edge="1">
                    <mxGeometry relative="1" as="geometry"/>
                </mxCell>
                <mxCell id="246" style="edgeStyle=none;html=1;exitX=1;exitY=0.5;exitDx=0;exitDy=0;fontSize=10;endArrow=classic;endFill=1;entryX=0;entryY=0.5;entryDx=0;entryDy=0;strokeColor=#A3BB44;rounded=0;" parent="1" source="169" target="243" edge="1">
                    <mxGeometry relative="1" as="geometry">
                        <mxPoint x="552" y="335" as="targetPoint"/>
                    </mxGeometry>
                </mxCell>
                <mxCell id="169" value="" style="ellipse;whiteSpace=wrap;html=1;aspect=fixed;fontSize=15;fillColor=#dae8fc;autosize=0;strokeColor=#6c8ebf;rounded=0;" parent="1" vertex="1">
                    <mxGeometry x="472" y="314.5" width="32" height="32" as="geometry"/>
                </mxCell>
                <mxCell id="210" style="edgeStyle=none;html=1;exitX=1;exitY=0.5;exitDx=0;exitDy=0;entryX=0;entryY=0.5;entryDx=0;entryDy=0;fontSize=15;endArrow=classic;endFill=1;strokeColor=#A3BB44;rounded=0;" parent="1" source="170" target="175" edge="1">
                    <mxGeometry relative="1" as="geometry"/>
                </mxCell>
                <mxCell id="212" style="edgeStyle=none;html=1;exitX=1;exitY=0.5;exitDx=0;exitDy=0;fontSize=15;endArrow=classic;endFill=1;entryX=0;entryY=0.5;entryDx=0;entryDy=0;strokeColor=#A3BB44;rounded=0;" parent="1" source="170" target="176" edge="1">
                    <mxGeometry relative="1" as="geometry">
                        <mxPoint x="552" y="335" as="targetPoint"/>
                    </mxGeometry>
                </mxCell>
                <mxCell id="217" style="edgeStyle=none;html=1;exitX=1;exitY=0.5;exitDx=0;exitDy=0;entryX=0.031;entryY=0.543;entryDx=0;entryDy=0;entryPerimeter=0;fontSize=15;endArrow=classic;endFill=1;strokeColor=#A3BB44;rounded=0;" parent="1" source="170" target="177" edge="1">
                    <mxGeometry relative="1" as="geometry"/>
                </mxCell>
                <mxCell id="245" style="edgeStyle=none;html=1;exitX=1;exitY=0.5;exitDx=0;exitDy=0;entryX=0;entryY=0.5;entryDx=0;entryDy=0;fontSize=10;endArrow=classic;endFill=1;strokeColor=#A3BB44;rounded=0;" parent="1" source="170" target="243" edge="1">
                    <mxGeometry relative="1" as="geometry"/>
                </mxCell>
                <mxCell id="214" style="edgeStyle=none;html=1;exitX=1;exitY=0.5;exitDx=0;exitDy=0;entryX=0;entryY=0.5;entryDx=0;entryDy=0;fontSize=15;endArrow=classic;endFill=1;strokeColor=#A3BB44;rounded=0;" parent="1" source="171" target="176" edge="1">
                    <mxGeometry relative="1" as="geometry"/>
                </mxCell>
                <mxCell id="216" style="edgeStyle=none;html=1;exitX=1;exitY=0.5;exitDx=0;exitDy=0;entryX=0;entryY=0.5;entryDx=0;entryDy=0;fontSize=15;endArrow=classic;endFill=1;strokeColor=#A3BB44;rounded=0;" parent="1" source="171" target="175" edge="1">
                    <mxGeometry relative="1" as="geometry"/>
                </mxCell>
                <mxCell id="218" style="edgeStyle=none;html=1;exitX=1;exitY=0.5;exitDx=0;exitDy=0;fontSize=15;endArrow=classic;endFill=1;entryX=0;entryY=0.5;entryDx=0;entryDy=0;strokeColor=#A3BB44;rounded=0;" parent="1" source="171" target="177" edge="1">
                    <mxGeometry relative="1" as="geometry">
                        <mxPoint x="552" y="371.5" as="targetPoint"/>
                    </mxGeometry>
                </mxCell>
                <mxCell id="247" style="edgeStyle=none;html=1;exitX=1;exitY=0.5;exitDx=0;exitDy=0;entryX=0;entryY=0.5;entryDx=0;entryDy=0;fontSize=10;endArrow=classic;endFill=1;strokeColor=#A3BB44;rounded=0;" parent="1" source="171" target="243" edge="1">
                    <mxGeometry relative="1" as="geometry"/>
                </mxCell>
                <mxCell id="171" value="" style="ellipse;whiteSpace=wrap;html=1;aspect=fixed;fontSize=15;fillColor=#dae8fc;autosize=0;strokeColor=#6c8ebf;rounded=0;" parent="1" vertex="1">
                    <mxGeometry x="473" y="355.5" width="32" height="32" as="geometry"/>
                </mxCell>
                <mxCell id="222" style="edgeStyle=none;html=1;exitX=1;exitY=0.5;exitDx=0;exitDy=0;entryX=0.034;entryY=0.17;entryDx=0;entryDy=0;entryPerimeter=0;fontSize=10;endArrow=none;endFill=0;strokeColor=#A3BB44;rounded=0;" parent="1" source="172" target="220" edge="1">
                    <mxGeometry relative="1" as="geometry"/>
                </mxCell>
                <mxCell id="172" value="" style="ellipse;whiteSpace=wrap;html=1;aspect=fixed;fontSize=15;fillColor=#d5e8d4;autosize=0;strokeColor=#82b366;rounded=0;" parent="1" vertex="1">
                    <mxGeometry x="542" y="41" width="32" height="32" as="geometry"/>
                </mxCell>
                <mxCell id="223" style="edgeStyle=none;html=1;exitX=1;exitY=0.5;exitDx=0;exitDy=0;entryX=0.05;entryY=0.433;entryDx=0;entryDy=0;entryPerimeter=0;fontSize=10;endArrow=none;endFill=0;strokeColor=#A3BB44;rounded=0;" parent="1" source="173" target="220" edge="1">
                    <mxGeometry relative="1" as="geometry"/>
                </mxCell>
                <mxCell id="173" value="" style="ellipse;whiteSpace=wrap;html=1;aspect=fixed;fontSize=15;fillColor=#d5e8d4;autosize=0;strokeColor=#82b366;rounded=0;" parent="1" vertex="1">
                    <mxGeometry x="542" y="80" width="32" height="32" as="geometry"/>
                </mxCell>
                <mxCell id="224" style="edgeStyle=none;html=1;exitX=1;exitY=0.5;exitDx=0;exitDy=0;entryX=0.007;entryY=0.877;entryDx=0;entryDy=0;entryPerimeter=0;fontSize=10;endArrow=none;endFill=0;strokeColor=#A3BB44;rounded=0;" parent="1" source="174" target="220" edge="1">
                    <mxGeometry relative="1" as="geometry"/>
                </mxCell>
                <mxCell id="174" value="" style="ellipse;whiteSpace=wrap;html=1;aspect=fixed;fontSize=15;fillColor=#d5e8d4;autosize=0;strokeColor=#82b366;rounded=0;" parent="1" vertex="1">
                    <mxGeometry x="542" y="164" width="32" height="32" as="geometry"/>
                </mxCell>
                <mxCell id="248" style="edgeStyle=none;html=1;exitX=1;exitY=0.5;exitDx=0;exitDy=0;entryX=0;entryY=0.5;entryDx=0;entryDy=0;fontSize=10;endArrow=none;endFill=0;strokeColor=#A3BB44;rounded=0;" parent="1" source="175" target="242" edge="1">
                    <mxGeometry relative="1" as="geometry"/>
                </mxCell>
                <mxCell id="175" value="" style="ellipse;whiteSpace=wrap;html=1;aspect=fixed;fontSize=15;fillColor=#d5e8d4;autosize=0;strokeColor=#82b366;rounded=0;" parent="1" vertex="1">
                    <mxGeometry x="552" y="247" width="32" height="32" as="geometry"/>
                </mxCell>
                <mxCell id="249" style="edgeStyle=none;html=1;exitX=1;exitY=0.5;exitDx=0;exitDy=0;fontSize=10;endArrow=none;endFill=0;entryX=0;entryY=0.5;entryDx=0;entryDy=0;strokeColor=#A3BB44;rounded=0;" parent="1" source="176" target="242" edge="1">
                    <mxGeometry relative="1" as="geometry">
                        <mxPoint x="602" y="315" as="targetPoint"/>
                    </mxGeometry>
                </mxCell>
                <mxCell id="176" value="" style="ellipse;whiteSpace=wrap;html=1;aspect=fixed;fontSize=15;fillColor=#d5e8d4;autosize=0;strokeColor=#82b366;rounded=0;" parent="1" vertex="1">
                    <mxGeometry x="552" y="287" width="32" height="32" as="geometry"/>
                </mxCell>
                <mxCell id="251" style="edgeStyle=none;html=1;exitX=1;exitY=0.5;exitDx=0;exitDy=0;entryX=0;entryY=0.5;entryDx=0;entryDy=0;fontSize=10;endArrow=none;endFill=0;strokeColor=#A3BB44;rounded=0;" parent="1" source="177" target="242" edge="1">
                    <mxGeometry relative="1" as="geometry"/>
                </mxCell>
                <mxCell id="177" value="" style="ellipse;whiteSpace=wrap;html=1;aspect=fixed;fontSize=15;fillColor=#d5e8d4;autosize=0;strokeColor=#82b366;rounded=0;" parent="1" vertex="1">
                    <mxGeometry x="552" y="368.5" width="32" height="32" as="geometry"/>
                </mxCell>
                <mxCell id="219" value="softmax" style="text;html=1;align=center;verticalAlign=middle;resizable=0;points=[];autosize=0;strokeColor=none;fillColor=none;fontSize=15;rounded=0;" parent="1" vertex="1">
                    <mxGeometry x="533" y="24" width="50" height="20" as="geometry"/>
                </mxCell>
                <mxCell id="220" value="" style="rounded=0;whiteSpace=wrap;html=1;shadow=0;glass=0;fontSize=10;fillColor=#fff2cc;autosize=0;strokeColor=#d6b656;" parent="1" vertex="1">
                    <mxGeometry x="602" y="71" width="20" height="80" as="geometry"/>
                </mxCell>
                <mxCell id="225" value="" style="endArrow=classic;html=1;fontSize=10;strokeColor=#A3BB44;rounded=0;" parent="1" edge="1">
                    <mxGeometry width="50" height="50" relative="1" as="geometry">
                        <mxPoint x="627" y="83.6" as="sourcePoint"/>
                        <mxPoint x="667" y="83.6" as="targetPoint"/>
                    </mxGeometry>
                </mxCell>
                <mxCell id="226" value="" style="endArrow=classic;html=1;fontSize=10;strokeColor=#A3BB44;rounded=0;" parent="1" edge="1">
                    <mxGeometry width="50" height="50" relative="1" as="geometry">
                        <mxPoint x="626.9999999999998" y="96.6" as="sourcePoint"/>
                        <mxPoint x="666.9999999999998" y="96.6" as="targetPoint"/>
                    </mxGeometry>
                </mxCell>
                <mxCell id="227" value="" style="endArrow=classic;html=1;fontSize=10;strokeColor=#A3BB44;rounded=0;" parent="1" edge="1">
                    <mxGeometry width="50" height="50" relative="1" as="geometry">
                        <mxPoint x="626.9999999999998" y="111.6" as="sourcePoint"/>
                        <mxPoint x="666.9999999999998" y="111.6" as="targetPoint"/>
                    </mxGeometry>
                </mxCell>
                <mxCell id="228" value="" style="endArrow=classic;html=1;fontSize=10;strokeColor=#A3BB44;rounded=0;" parent="1" edge="1">
                    <mxGeometry width="50" height="50" relative="1" as="geometry">
                        <mxPoint x="626.9999999999998" y="136.6" as="sourcePoint"/>
                        <mxPoint x="666.9999999999998" y="136.6" as="targetPoint"/>
                    </mxGeometry>
                </mxCell>
                <mxCell id="235" style="edgeStyle=none;html=1;exitX=1;exitY=0.5;exitDx=0;exitDy=0;fontSize=16;endArrow=none;endFill=0;entryX=-0.033;entryY=0.683;entryDx=0;entryDy=0;entryPerimeter=0;strokeColor=#A3BB44;rounded=0;" parent="1" source="229" target="220" edge="1">
                    <mxGeometry relative="1" as="geometry"/>
                </mxCell>
                <mxCell id="229" value="" style="ellipse;whiteSpace=wrap;html=1;aspect=fixed;fontSize=15;fillColor=#d5e8d4;autosize=0;strokeColor=#82b366;rounded=0;" parent="1" vertex="1">
                    <mxGeometry x="542" y="118" width="32" height="32" as="geometry"/>
                </mxCell>
                <mxCell id="230" value="..." style="text;html=1;align=center;verticalAlign=middle;resizable=0;points=[];autosize=0;strokeColor=none;fillColor=none;fontSize=16;rounded=0;" parent="1" vertex="1">
                    <mxGeometry x="543" y="141" width="30" height="20" as="geometry"/>
                </mxCell>
                <mxCell id="236" value="..." style="text;html=1;align=center;verticalAlign=middle;resizable=0;points=[];autosize=0;strokeColor=none;fillColor=none;fontSize=16;rounded=0;" parent="1" vertex="1">
                    <mxGeometry x="643" y="109" width="30" height="20" as="geometry"/>
                </mxCell>
                <mxCell id="238" value="output" style="text;html=1;align=center;verticalAlign=middle;resizable=0;points=[];autosize=0;strokeColor=none;fillColor=none;fontSize=15;rounded=0;" parent="1" vertex="1">
                    <mxGeometry x="592" y="48" width="40" height="20" as="geometry"/>
                </mxCell>
                <mxCell id="239" value="Policy" style="text;html=1;align=center;verticalAlign=middle;resizable=0;points=[];autosize=0;strokeColor=none;fillColor=none;fontSize=15;fontStyle=1;rounded=0;" parent="1" vertex="1">
                    <mxGeometry x="680" y="89" width="40" height="20" as="geometry"/>
                </mxCell>
                <mxCell id="241" value="full connection" style="text;html=1;align=center;verticalAlign=middle;resizable=0;points=[];autosize=0;strokeColor=none;fillColor=none;fontSize=15;rounded=0;" parent="1" vertex="1">
                    <mxGeometry x="529" y="229" width="80" height="20" as="geometry"/>
                </mxCell>
                <mxCell id="242" value="" style="ellipse;whiteSpace=wrap;html=1;aspect=fixed;fontSize=15;fillColor=#fff2cc;autosize=0;strokeColor=#d6b656;rounded=0;" parent="1" vertex="1">
                    <mxGeometry x="600" y="304" width="32" height="32" as="geometry"/>
                </mxCell>
                <mxCell id="250" style="edgeStyle=none;html=1;exitX=1;exitY=0.5;exitDx=0;exitDy=0;entryX=0;entryY=0.5;entryDx=0;entryDy=0;fontSize=10;endArrow=none;endFill=0;strokeColor=#A3BB44;rounded=0;" parent="1" source="243" target="242" edge="1">
                    <mxGeometry relative="1" as="geometry"/>
                </mxCell>
                <mxCell id="243" value="" style="ellipse;whiteSpace=wrap;html=1;aspect=fixed;fontSize=15;fillColor=#d5e8d4;autosize=0;strokeColor=#82b366;rounded=0;" parent="1" vertex="1">
                    <mxGeometry x="551" y="323" width="32" height="32" as="geometry"/>
                </mxCell>
                <mxCell id="244" value="..." style="text;html=1;align=center;verticalAlign=middle;resizable=0;points=[];autosize=0;strokeColor=none;fillColor=none;fontSize=16;rounded=0;" parent="1" vertex="1">
                    <mxGeometry x="554" y="346.5" width="30" height="20" as="geometry"/>
                </mxCell>
                <mxCell id="252" value="output" style="text;html=1;align=center;verticalAlign=middle;resizable=0;points=[];autosize=0;strokeColor=none;fillColor=none;fontSize=15;rounded=0;" parent="1" vertex="1">
                    <mxGeometry x="596" y="272" width="40" height="20" as="geometry"/>
                </mxCell>
                <mxCell id="254" value="Value" style="text;html=1;align=center;verticalAlign=middle;resizable=0;points=[];autosize=0;strokeColor=none;fillColor=none;fontSize=15;fontStyle=1;rounded=0;" parent="1" vertex="1">
                    <mxGeometry x="672" y="297" width="40" height="20" as="geometry"/>
                </mxCell>
                <mxCell id="255" value="$$\pi_{\theta}(s_t,a_t)$$" style="text;html=1;align=center;verticalAlign=middle;resizable=0;points=[];autosize=0;strokeColor=none;fillColor=none;fontSize=15;rounded=0;" parent="1" vertex="1">
                    <mxGeometry x="641" y="120" width="120" height="20" as="geometry"/>
                </mxCell>
                <mxCell id="256" value="$$V^{\pi\theta}(s_t,\theta_v)$$" style="text;html=1;align=center;verticalAlign=middle;resizable=0;points=[];autosize=0;strokeColor=none;fillColor=none;fontSize=15;rounded=0;" parent="1" vertex="1">
                    <mxGeometry x="631" y="325" width="150" height="20" as="geometry"/>
                </mxCell>
                <mxCell id="257" value="" style="endArrow=classic;html=1;fontSize=10;strokeColor=#A3BB44;rounded=0;" parent="1" edge="1">
                    <mxGeometry width="50" height="50" relative="1" as="geometry">
                        <mxPoint x="632" y="320" as="sourcePoint"/>
                        <mxPoint x="666.9999999999998" y="319.93000000000006" as="targetPoint"/>
                    </mxGeometry>
                </mxCell>
                <mxCell id="273" value="Link bandwidth capacity" style="text;align=center;verticalAlign=middle;resizable=0;points=[];autosize=0;strokeColor=none;fillColor=none;fontSize=15;rounded=0;" parent="1" vertex="1">
                    <mxGeometry x="223" y="98" width="150" height="20" as="geometry"/>
                </mxCell>
                <mxCell id="274" value="" style="rounded=0;whiteSpace=wrap;html=1;fontSize=12;strokeColor=#A3BB44;" parent="1" vertex="1">
                    <mxGeometry x="269" y="71" width="30" height="30" as="geometry"/>
                </mxCell>
                <mxCell id="263" value="$$c_{n_s^1}$$" style="text;html=1;align=center;verticalAlign=middle;resizable=0;points=[];autosize=0;strokeColor=none;fillColor=none;fontSize=20;rounded=0;" parent="1" vertex="1">
                    <mxGeometry x="236" y="71" width="100" height="30" as="geometry"/>
                </mxCell>
                <mxCell id="278" value="" style="rounded=0;whiteSpace=wrap;html=1;fontSize=12;strokeColor=#A3BB44;" parent="1" vertex="1">
                    <mxGeometry x="299" y="71" width="30" height="30" as="geometry"/>
                </mxCell>
                <mxCell id="279" value="" style="rounded=0;whiteSpace=wrap;html=1;fontSize=12;strokeColor=#A3BB44;" parent="1" vertex="1">
                    <mxGeometry x="329" y="71" width="30" height="30" as="geometry"/>
                </mxCell>
                <mxCell id="315" style="edgeStyle=none;html=1;exitX=1;exitY=0.5;exitDx=0;exitDy=0;entryX=0;entryY=0.5;entryDx=0;entryDy=0;fontSize=17;strokeColor=#A3BB44;rounded=0;" parent="1" source="280" target="306" edge="1">
                    <mxGeometry relative="1" as="geometry"/>
                </mxCell>
                <mxCell id="319" style="edgeStyle=none;html=1;exitX=1;exitY=0.5;exitDx=0;exitDy=0;entryX=0;entryY=0.5;entryDx=0;entryDy=0;fontSize=17;strokeColor=#A3BB44;rounded=0;" parent="1" source="280" target="307" edge="1">
                    <mxGeometry relative="1" as="geometry"/>
                </mxCell>
                <mxCell id="280" value="" style="rounded=0;whiteSpace=wrap;html=1;fontSize=12;strokeColor=#A3BB44;" parent="1" vertex="1">
                    <mxGeometry x="359" y="71" width="30" height="30" as="geometry"/>
                </mxCell>
                <mxCell id="nRZEbjwyl-34TutgP4im-262" value="$$c_{n_s^2}$$" style="text;html=1;align=center;verticalAlign=middle;resizable=0;points=[];autosize=0;strokeColor=none;fillColor=none;fontSize=20;rounded=0;" parent="1" vertex="1">
                    <mxGeometry x="264.5" y="71" width="100" height="30" as="geometry"/>
                </mxCell>
                <mxCell id="262" value="$$c_{n_s^j}$$" style="text;html=1;align=center;verticalAlign=middle;resizable=0;points=[];autosize=0;strokeColor=none;fillColor=none;fontSize=20;rounded=0;" parent="1" vertex="1">
                    <mxGeometry x="324" y="71" width="100" height="30" as="geometry"/>
                </mxCell>
                <mxCell id="281" value="" style="rounded=0;whiteSpace=wrap;html=1;fontSize=12;strokeColor=#A3BB44;" parent="1" vertex="1">
                    <mxGeometry x="269" y="119" width="30" height="30" as="geometry"/>
                </mxCell>
                <mxCell id="283" value="" style="rounded=0;whiteSpace=wrap;html=1;fontSize=12;strokeColor=#A3BB44;" parent="1" vertex="1">
                    <mxGeometry x="299" y="119" width="30" height="30" as="geometry"/>
                </mxCell>
                <mxCell id="284" value="" style="rounded=0;whiteSpace=wrap;html=1;fontSize=12;strokeColor=#A3BB44;" parent="1" vertex="1">
                    <mxGeometry x="329" y="119" width="30" height="30" as="geometry"/>
                </mxCell>
                <mxCell id="316" style="edgeStyle=none;html=1;exitX=1;exitY=0.5;exitDx=0;exitDy=0;fontSize=17;strokeColor=#A3BB44;rounded=0;entryX=0;entryY=0.5;entryDx=0;entryDy=0;" parent="1" source="285" target="306" edge="1">
                    <mxGeometry relative="1" as="geometry">
                        <mxPoint x="452" y="52" as="targetPoint"/>
                    </mxGeometry>
                </mxCell>
                <mxCell id="320" style="edgeStyle=none;html=1;exitX=1;exitY=0.5;exitDx=0;exitDy=0;fontSize=17;strokeColor=#A3BB44;rounded=0;entryX=0;entryY=0.5;entryDx=0;entryDy=0;" parent="1" source="285" target="307" edge="1">
                    <mxGeometry relative="1" as="geometry">
                        <mxPoint x="452" y="262" as="targetPoint"/>
                    </mxGeometry>
                </mxCell>
                <mxCell id="285" value="" style="rounded=0;whiteSpace=wrap;html=1;fontSize=12;strokeColor=#A3BB44;" parent="1" vertex="1">
                    <mxGeometry x="359" y="119" width="30" height="30" as="geometry"/>
                </mxCell>
                <mxCell id="264" value="$$b_{l_s^1}$$" style="text;html=1;align=center;verticalAlign=middle;resizable=0;points=[];autosize=0;strokeColor=none;fillColor=none;fontSize=20;rounded=0;" parent="1" vertex="1">
                    <mxGeometry x="236" y="119" width="100" height="30" as="geometry"/>
                </mxCell>
                <mxCell id="265" value="$$b_{l_s^2}$$" style="text;html=1;align=center;verticalAlign=middle;resizable=0;points=[];autosize=0;strokeColor=none;fillColor=none;fontSize=20;rounded=0;" parent="1" vertex="1">
                    <mxGeometry x="264.5" y="119" width="100" height="30" as="geometry"/>
                </mxCell>
                <mxCell id="266" value="$$b_{l_s^x}$$" style="text;html=1;align=center;verticalAlign=middle;resizable=0;points=[];autosize=0;strokeColor=none;fillColor=none;fontSize=20;rounded=0;" parent="1" vertex="1">
                    <mxGeometry x="325" y="119" width="100" height="30" as="geometry"/>
                </mxCell>
                <mxCell id="323" style="edgeStyle=none;html=1;exitX=1;exitY=0.5;exitDx=0;exitDy=0;entryX=0;entryY=0.5;entryDx=0;entryDy=0;fontSize=17;strokeColor=#A3BB44;rounded=0;" parent="1" source="302" target="164" edge="1">
                    <mxGeometry relative="1" as="geometry"/>
                </mxCell>
                <mxCell id="325" style="edgeStyle=none;html=1;exitX=1;exitY=0.5;exitDx=0;exitDy=0;entryX=0;entryY=0.5;entryDx=0;entryDy=0;fontSize=17;strokeColor=#A3BB44;rounded=0;" parent="1" source="302" target="166" edge="1">
                    <mxGeometry relative="1" as="geometry"/>
                </mxCell>
                <mxCell id="327" style="edgeStyle=none;html=1;exitX=1;exitY=0.5;exitDx=0;exitDy=0;entryX=0;entryY=0.5;entryDx=0;entryDy=0;fontSize=17;strokeColor=#A3BB44;rounded=0;" parent="1" source="302" target="169" edge="1">
                    <mxGeometry relative="1" as="geometry"/>
                </mxCell>
                <mxCell id="329" style="edgeStyle=none;html=1;exitX=1;exitY=0.5;exitDx=0;exitDy=0;entryX=0;entryY=0.5;entryDx=0;entryDy=0;fontSize=17;strokeColor=#A3BB44;rounded=0;" parent="1" source="302" target="171" edge="1">
                    <mxGeometry relative="1" as="geometry"/>
                </mxCell>
                <mxCell id="302" value="" style="rounded=0;whiteSpace=wrap;html=1;fontSize=12;strokeColor=#A3BB44;" parent="1" vertex="1">
                    <mxGeometry x="334" y="312" width="30" height="30" as="geometry"/>
                </mxCell>
                <mxCell id="nRZEbjwyl-34TutgP4im-270" value="$$c_{n_t^i}$$" style="text;html=1;align=center;verticalAlign=middle;resizable=0;points=[];autosize=0;strokeColor=none;fillColor=none;fontSize=20;rounded=0;" parent="1" vertex="1">
                    <mxGeometry x="300" y="312" width="100" height="30" as="geometry"/>
                </mxCell>
                <mxCell id="324" style="edgeStyle=none;html=1;exitX=1;exitY=0.5;exitDx=0;exitDy=0;entryX=0;entryY=0.5;entryDx=0;entryDy=0;fontSize=17;strokeColor=#A3BB44;rounded=0;" parent="1" source="303" target="164" edge="1">
                    <mxGeometry relative="1" as="geometry"/>
                </mxCell>
                <mxCell id="326" style="edgeStyle=none;html=1;exitX=1;exitY=0.5;exitDx=0;exitDy=0;fontSize=17;strokeColor=#A3BB44;rounded=0;entryX=0;entryY=0.5;entryDx=0;entryDy=0;" parent="1" source="303" target="166" edge="1">
                    <mxGeometry relative="1" as="geometry">
                        <mxPoint x="472" y="159" as="targetPoint"/>
                    </mxGeometry>
                </mxCell>
                <mxCell id="328" style="edgeStyle=none;html=1;exitX=1;exitY=0.5;exitDx=0;exitDy=0;fontSize=17;strokeColor=#A3BB44;rounded=0;entryX=0;entryY=0.5;entryDx=0;entryDy=0;" parent="1" source="303" target="169" edge="1">
                    <mxGeometry relative="1" as="geometry">
                        <mxPoint x="472" y="322" as="targetPoint"/>
                    </mxGeometry>
                </mxCell>
                <mxCell id="330" style="edgeStyle=none;html=1;exitX=1;exitY=0.5;exitDx=0;exitDy=0;fontSize=17;strokeColor=#A3BB44;entryX=0;entryY=0.5;entryDx=0;entryDy=0;rounded=0;" parent="1" source="303" target="171" edge="1">
                    <mxGeometry relative="1" as="geometry">
                        <mxPoint x="472" y="368.57142857142856" as="targetPoint"/>
                    </mxGeometry>
                </mxCell>
                <mxCell id="303" value="" style="rounded=0;whiteSpace=wrap;html=1;fontSize=12;strokeColor=#A3BB44;" parent="1" vertex="1">
                    <mxGeometry x="334" y="363.5" width="30" height="30" as="geometry"/>
                </mxCell>
                <mxCell id="nRZEbjwyl-34TutgP4im-271" value="$$b_{l_s^j}$$" style="text;html=1;align=center;verticalAlign=middle;resizable=0;points=[];autosize=0;strokeColor=none;fillColor=none;fontSize=20;rounded=0;" parent="1" vertex="1">
                    <mxGeometry x="299" y="363.5" width="100" height="30" as="geometry"/>
                </mxCell>
                <mxCell id="306" value="" style="rounded=0;whiteSpace=wrap;html=1;shadow=0;glass=0;fontSize=15;fillColor=#d5e8d4;autosize=0;strokeColor=#82b366;" parent="1" vertex="1">
                    <mxGeometry x="450" y="32" width="50" height="52" as="geometry"/>
                </mxCell>
                <mxCell id="305" value="" style="rounded=0;whiteSpace=wrap;html=1;shadow=0;glass=0;fontSize=15;fillColor=#dae8fc;autosize=0;strokeColor=#6c8ebf;" parent="1" vertex="1">
                    <mxGeometry x="455" y="37" width="50" height="52" as="geometry"/>
                </mxCell>
                <mxCell id="331" style="edgeStyle=none;html=1;exitX=1;exitY=0.5;exitDx=0;exitDy=0;entryX=0;entryY=0.5;entryDx=0;entryDy=0;fontSize=17;endArrow=classic;endFill=1;strokeColor=#A3BB44;rounded=0;" parent="1" source="165" target="172" edge="1">
                    <mxGeometry relative="1" as="geometry"/>
                </mxCell>
                <mxCell id="165" value="GCN" style="rounded=0;whiteSpace=wrap;html=1;shadow=0;glass=0;fontSize=15;fillColor=#ffe6cc;autosize=0;strokeColor=#d79b00;" parent="1" vertex="1">
                    <mxGeometry x="460" y="42" width="50" height="52" as="geometry"/>
                </mxCell>
                <mxCell id="307" value="" style="rounded=0;whiteSpace=wrap;html=1;shadow=0;glass=0;fontSize=15;fillColor=#d5e8d4;autosize=0;strokeColor=#82b366;" parent="1" vertex="1">
                    <mxGeometry x="453" y="244" width="50" height="52" as="geometry"/>
                </mxCell>
                <mxCell id="308" value="" style="rounded=0;whiteSpace=wrap;html=1;shadow=0;glass=0;fontSize=15;fillColor=#dae8fc;autosize=0;strokeColor=#6c8ebf;" parent="1" vertex="1">
                    <mxGeometry x="458" y="249" width="50" height="52" as="geometry"/>
                </mxCell>
                <mxCell id="170" value="GCN" style="rounded=0;whiteSpace=wrap;html=1;shadow=0;glass=0;fontSize=15;fillColor=#ffe6cc;autosize=0;strokeColor=#d79b00;" parent="1" vertex="1">
                    <mxGeometry x="463" y="254.5" width="50" height="52" as="geometry"/>
                </mxCell>
                <mxCell id="309" value="..." style="text;html=1;align=center;verticalAlign=middle;resizable=0;points=[];autosize=1;strokeColor=none;fillColor=none;fontSize=17;rounded=0;" parent="1" vertex="1">
                    <mxGeometry x="329" y="71" width="30" height="30" as="geometry"/>
                </mxCell>
                <mxCell id="310" value="..." style="text;html=1;align=center;verticalAlign=middle;resizable=0;points=[];autosize=1;strokeColor=none;fillColor=none;fontSize=17;rounded=0;" parent="1" vertex="1">
                    <mxGeometry x="329" y="118" width="30" height="30" as="geometry"/>
                </mxCell>
                <mxCell id="379" value="" style="rounded=0;whiteSpace=wrap;html=1;fontSize=12;strokeColor=#A3BB44;" parent="1" vertex="1">
                    <mxGeometry x="225.5" y="165" width="44.5" height="30" as="geometry"/>
                </mxCell>
                <mxCell id="380" value="$$cpu(n_s^1)$$" style="text;html=1;align=center;verticalAlign=middle;resizable=0;points=[];autosize=0;strokeColor=none;fillColor=none;fontSize=11;rounded=0;" parent="1" vertex="1">
                    <mxGeometry x="198" y="165" width="100" height="30" as="geometry"/>
                </mxCell>
                <mxCell id="381" value="" style="rounded=0;whiteSpace=wrap;html=1;fontSize=12;strokeColor=#A3BB44;" parent="1" vertex="1">
                    <mxGeometry x="270" y="165" width="44.5" height="30" as="geometry"/>
                </mxCell>
                <mxCell id="382" value="" style="rounded=0;whiteSpace=wrap;html=1;fontSize=12;strokeColor=#A3BB44;" parent="1" vertex="1">
                    <mxGeometry x="314" y="165" width="28.75" height="30" as="geometry"/>
                </mxCell>
                <mxCell id="402" style="edgeStyle=none;html=1;exitX=1;exitY=0.5;exitDx=0;exitDy=0;entryX=0;entryY=0.5;entryDx=0;entryDy=0;fontSize=12;strokeColor=#A3BB44;" parent="1" source="383" target="306" edge="1">
                    <mxGeometry relative="1" as="geometry"/>
                </mxCell>
                <mxCell id="404" style="edgeStyle=none;html=1;exitX=1;exitY=0.5;exitDx=0;exitDy=0;entryX=0;entryY=0.5;entryDx=0;entryDy=0;fontSize=12;strokeColor=#A3BB44;" parent="1" source="383" target="307" edge="1">
                    <mxGeometry relative="1" as="geometry"/>
                </mxCell>
                <mxCell id="383" value="" style="rounded=0;whiteSpace=wrap;html=1;fontSize=12;strokeColor=#A3BB44;" parent="1" vertex="1">
                    <mxGeometry x="343" y="165" width="44.5" height="30" as="geometry"/>
                </mxCell>
                <mxCell id="384" value="$$cpu(n_s^2)$$" style="text;html=1;align=center;verticalAlign=middle;resizable=0;points=[];autosize=0;strokeColor=none;fillColor=none;fontSize=11;rounded=0;" parent="1" vertex="1">
                    <mxGeometry x="242.25" y="165" width="100" height="30" as="geometry"/>
                </mxCell>
                <mxCell id="385" value="$$cpu(n_s^j)$$" style="text;html=1;align=center;verticalAlign=middle;resizable=0;points=[];autosize=0;strokeColor=none;fillColor=none;fontSize=11;rounded=0;" parent="1" vertex="1">
                    <mxGeometry x="314.5" y="165" width="100" height="30" as="geometry"/>
                </mxCell>
                <mxCell id="386" value="..." style="text;html=1;align=center;verticalAlign=middle;resizable=0;points=[];autosize=1;strokeColor=none;fillColor=none;fontSize=17;rounded=0;" parent="1" vertex="1">
                    <mxGeometry x="313.38" y="165" width="30" height="30" as="geometry"/>
                </mxCell>
                <mxCell id="395" value="" style="rounded=0;whiteSpace=wrap;html=1;fontSize=12;strokeColor=#A3BB44;" parent="1" vertex="1">
                    <mxGeometry x="225.12" y="214.5" width="44.5" height="30" as="geometry"/>
                </mxCell>
                <mxCell id="396" value="" style="rounded=0;whiteSpace=wrap;html=1;fontSize=12;strokeColor=#A3BB44;" parent="1" vertex="1">
                    <mxGeometry x="269.62" y="214.5" width="44.5" height="30" as="geometry"/>
                </mxCell>
                <mxCell id="397" value="" style="rounded=0;whiteSpace=wrap;html=1;fontSize=12;strokeColor=#A3BB44;" parent="1" vertex="1">
                    <mxGeometry x="313.62" y="214.5" width="28.75" height="30" as="geometry"/>
                </mxCell>
                <mxCell id="403" style="edgeStyle=none;html=1;exitX=1;exitY=0.5;exitDx=0;exitDy=0;entryX=0;entryY=0.5;entryDx=0;entryDy=0;fontSize=12;strokeColor=#A3BB44;" parent="1" source="398" target="306" edge="1">
                    <mxGeometry relative="1" as="geometry"/>
                </mxCell>
                <mxCell id="405" style="edgeStyle=none;html=1;exitX=1;exitY=0.5;exitDx=0;exitDy=0;fontSize=12;strokeColor=#A3BB44;entryX=0;entryY=0.5;entryDx=0;entryDy=0;" parent="1" source="398" target="307" edge="1">
                    <mxGeometry relative="1" as="geometry">
                        <mxPoint x="451" y="270" as="targetPoint"/>
                    </mxGeometry>
                </mxCell>
                <mxCell id="398" value="" style="rounded=0;whiteSpace=wrap;html=1;fontSize=12;strokeColor=#A3BB44;" parent="1" vertex="1">
                    <mxGeometry x="342.62" y="214.5" width="44.5" height="30" as="geometry"/>
                </mxCell>
                <mxCell id="401" value="..." style="text;html=1;align=center;verticalAlign=middle;resizable=0;points=[];autosize=1;strokeColor=none;fillColor=none;fontSize=17;rounded=0;" parent="1" vertex="1">
                    <mxGeometry x="313" y="214.5" width="30" height="30" as="geometry"/>
                </mxCell>
                <mxCell id="366" value="$$bw(l_s^1)$$" style="text;html=1;align=center;verticalAlign=middle;resizable=0;points=[];autosize=0;strokeColor=none;fillColor=none;fontSize=13;rounded=0;" parent="1" vertex="1">
                    <mxGeometry x="197.87" y="214.5" width="100" height="30" as="geometry"/>
                </mxCell>
                <mxCell id="367" value="$$bw(l_s^2)$$" style="text;html=1;align=center;verticalAlign=middle;resizable=0;points=[];autosize=0;strokeColor=none;fillColor=none;fontSize=13;rounded=0;" parent="1" vertex="1">
                    <mxGeometry x="243" y="214.5" width="100" height="30" as="geometry"/>
                </mxCell>
                <mxCell id="368" value="$$bw(l_s^x)$$" style="text;html=1;align=center;verticalAlign=middle;resizable=0;points=[];autosize=0;strokeColor=none;fillColor=none;fontSize=13;rounded=0;" parent="1" vertex="1">
                    <mxGeometry x="314.87" y="214.5" width="100" height="30" as="geometry"/>
                </mxCell>
            </root>
        </mxGraphModel>
    </diagram>
</mxfile>